<svg width="12" height="14" viewBox="0 0 12 14" fill="none" xmlns="http://www.w3.org/2000/svg">
<path d="M11.0328 6.32654C10.7295 5.64382 10.2885 5.03104 9.7375 4.52654L9.28281 4.10936C9.26737 4.09558 9.24879 4.0858 9.22869 4.08088C9.2086 4.07597 9.1876 4.07606 9.16754 4.08115C9.14749 4.08624 9.12899 4.09617 9.11367 4.11008C9.09835 4.12399 9.08668 4.14145 9.07969 4.16092L8.87656 4.74373C8.75 5.10936 8.51719 5.48279 8.1875 5.84998C8.16563 5.87342 8.14063 5.87967 8.12344 5.88123C8.10625 5.88279 8.07969 5.87967 8.05625 5.85779C8.03437 5.83904 8.02344 5.81092 8.025 5.78279C8.08281 4.84217 7.80156 3.78123 7.18594 2.62654C6.67656 1.66717 5.96875 0.918731 5.08437 0.396856L4.43906 0.017169C4.35469 -0.032831 4.24688 0.0327939 4.25156 0.131231L4.28594 0.881231C4.30937 1.39373 4.25 1.84686 4.10938 2.22342C3.9375 2.68436 3.69062 3.11248 3.375 3.49686C3.15535 3.76399 2.90639 4.0056 2.63281 4.21717C1.97391 4.72368 1.43815 5.37269 1.06562 6.11561C0.694022 6.865 0.500453 7.69007 0.5 8.52654C0.5 9.26404 0.645312 9.97811 0.932812 10.6515C1.21042 11.2999 1.61103 11.8884 2.1125 12.3844C2.61875 12.8844 3.20625 13.2781 3.86094 13.5515C4.53906 13.8359 5.25781 13.9797 6 13.9797C6.74219 13.9797 7.46094 13.8359 8.13906 13.5531C8.79214 13.2813 9.38601 12.8848 9.8875 12.3859C10.3938 11.8859 10.7906 11.3015 11.0672 10.6531C11.3543 9.98151 11.5015 9.25848 11.5 8.52811C11.5 7.76561 11.3438 7.02498 11.0328 6.32654ZM9.14062 11.6281C8.30156 12.4594 7.1875 12.9156 6 12.9156C4.8125 12.9156 3.69844 12.4594 2.85938 11.6281C2.02344 10.7984 1.5625 9.69842 1.5625 8.52811C1.5625 7.84842 1.71563 7.19686 2.01719 6.59061C2.31094 5.99842 2.74844 5.46873 3.27969 5.06092C3.6185 4.80185 3.9258 4.50398 4.19531 4.17342C4.58594 3.69686 4.89219 3.16561 5.10469 2.59529C5.19185 2.36004 5.25519 2.11663 5.29375 1.86873C5.67031 2.21561 5.98594 2.63436 6.25 3.12498C6.77187 4.10311 7.0125 4.97342 6.96562 5.71404C6.95443 5.88848 6.98291 6.06318 7.04895 6.22501C7.11498 6.38685 7.21684 6.53161 7.34688 6.64842C7.45956 6.75021 7.59135 6.8286 7.73458 6.87902C7.87782 6.92945 8.02965 6.95091 8.18125 6.94217C8.48906 6.92654 8.77187 6.79061 8.97812 6.56092C9.18594 6.32811 9.36563 6.09061 9.51562 5.84842C9.73438 6.12811 9.91719 6.43279 10.0625 6.76092C10.3109 7.32029 10.4375 7.91561 10.4375 8.52811C10.4375 9.69842 9.97656 10.8 9.14062 11.6281Z" fill="white"/>
</svg>
